<svg xmlns="http://www.w3.org/2000/svg" width="512" height="512" viewBox="0 0 512 512" role="img" aria-label="ProtoLive">
  <defs>
    <linearGradient id="bg" x1="70" y1="40" x2="442" y2="476" gradientUnits="userSpaceOnUse">
      <stop stop-color="#7a1f3d"/>
      <stop offset=".56" stop-color="#2b1020"/>
      <stop offset="1" stop-color="#7a1f3d"/>
    </linearGradient>
    <radialGradient id="glow" cx="72%" cy="23%" r="68%">
      <stop stop-color="#ff8a3d" stop-opacity=".72"/>
      <stop offset=".58" stop-color="#f4d35e" stop-opacity=".24"/>
      <stop offset="1" stop-color="#2b1020" stop-opacity="0"/>
    </radialGradient>
    <filter id="shadow" x="-20%" y="-20%" width="140%" height="140%">
      <feDropShadow dx="0" dy="18" stdDeviation="22" flood-color="#2b1020" flood-opacity=".34"/>
    </filter>
  </defs>
  <rect width="512" height="512" rx="94" fill="url(#bg)"/>
  <rect width="512" height="512" rx="94" fill="url(#glow)"/>
  <path d="M46 342C154 278 238 414 466 292" fill="none" stroke="#fbf3e2" stroke-opacity=".1" stroke-width="26" stroke-linecap="round"/>
  <g filter="url(#shadow)">
        <g transform="translate(-20 -20) scale(1.08)">
          <circle cx="256" cy="256" r="122" fill="none" stroke="#fbf3e2" stroke-width="26" opacity=".92"/>
          <path d="M256 134a122 122 0 0 1 116 84" fill="none" stroke="#ff8a3d" stroke-width="28" stroke-linecap="round"/>
          <path d="M256 378a122 122 0 0 1-116-84" fill="none" stroke="#f4d35e" stroke-width="28" stroke-linecap="round"/>
          <circle cx="256" cy="134" r="36" fill="#ff8a3d"/><circle cx="372" cy="218" r="36" fill="#f4d35e"/><circle cx="140" cy="294" r="36" fill="#fbf3e2"/>
          <path d="M232 214l86 42-86 42z" fill="#fbf3e2"/>
        </g></g>
</svg>
